<svg width="203" height="200" viewBox="0 0 203 200" fill="none" xmlns="http://www.w3.org/2000/svg">
<g clip-path="url(#clip0_3026_1908)">
<path d="M81.8385 0H56.7021L53.6273 14.3011H56.7021V98.5067H71.6392V69.883H81.8207C83.434 69.8853 85.032 69.569 86.5233 68.9523C88.0145 68.3355 89.3698 67.4302 90.5114 66.2883C91.6532 65.1465 92.5588 63.7903 93.1768 62.2975C93.7948 60.8047 94.1128 59.2045 94.1128 57.5885V12.2981C94.1133 10.6832 93.7962 9.08413 93.1795 7.59208C92.5628 6.10003 91.6588 4.74427 90.519 3.60225C89.3792 2.46022 88.026 1.55429 86.5366 0.936207C85.047 0.318125 83.4506 -6.883e-08 81.8385 0ZM79.1793 55.589H71.6535V14.3083H79.1793V55.589ZM110.548 0H144.518V14.3011H125.485V42.1028H138.87V56.4038H125.485V84.2057H144.518V98.5067H110.548V14.3011H107.473L110.548 0ZM191.391 52.6958L202.499 98.5067H187.294L179.815 67.4852L172.913 98.5032H157.144L168.254 52.6922V45.8108L160.598 14.2975H157.527L160.598 0H172.335L179.815 31.018L186.713 0H202.483L191.372 45.8108L191.391 52.6958ZM32.4544 0H11.8586L4.53344 69.9082H3.00676V70.2203L0 84.2057H3.03543L1.53743 98.5067H14.8869L16.1269 84.2057H28.1934L29.4262 98.5067H42.7793L32.4544 0ZM17.3562 69.9082L22.1583 14.3011L26.9569 69.9082H17.3562ZM36.418 121.828V124.991H2.21476L1.53743 121.828H36.418ZM202.496 121.828L201.815 124.991H167.615V121.828H202.496ZM64.0846 110.823H72.2304V113.989H67.2454V121.832H70.9581V124.998H67.2454V132.281H72.2304V135.448H64.0846V110.823ZM52.5198 132.281H57.5084V135.448H49.359V110.823H52.5198V132.281ZM88.6762 112.933V116.466L85.5154 117.148V113.989H82.8455V132.296H85.5154V124.998H83.8598L84.5407 121.832H88.6727V133.373C88.6632 133.926 88.4371 134.454 88.0429 134.842C87.6487 135.23 87.1181 135.448 86.5655 135.448H81.7919C81.2414 135.441 80.7148 135.222 80.3226 134.835C79.9304 134.448 79.703 133.924 79.6883 133.373V112.933C79.6991 112.378 79.9243 111.848 80.3163 111.454C80.7083 111.061 81.2371 110.835 81.7919 110.823H86.569C87.1276 110.824 87.6631 111.046 88.0581 111.442C88.4531 111.838 88.6754 112.374 88.6762 112.933ZM96.134 110.823H104.287V113.989H99.2913V121.832H103.004V124.998H99.2913V132.281H104.287V135.448H96.134V110.823ZM118.619 110.823H121.779V135.448H119.088L114.895 121.832V135.448H111.734V110.823H114.569L118.622 124.998L118.619 110.823ZM136.118 110.823H129.234V135.448H136.118C136.671 135.448 137.201 135.23 137.595 134.842C137.99 134.454 138.216 133.926 138.225 133.373V112.933C138.223 112.374 138.001 111.838 137.606 111.443C137.211 111.048 136.676 110.825 136.118 110.823ZM135.064 132.281H132.394V113.974H135.064V132.281ZM154.671 123.943V133.373C154.662 133.926 154.435 134.454 154.041 134.842C153.647 135.23 153.116 135.448 152.564 135.448H147.787C147.237 135.437 146.713 135.216 146.321 134.83C145.929 134.444 145.699 133.923 145.679 133.373V129.625L148.84 128.943V132.281H151.51V124.998H147.787C147.234 124.999 146.702 124.782 146.308 124.394C145.914 124.005 145.688 123.477 145.679 122.923V112.933C145.665 112.653 145.711 112.372 145.812 112.11C145.913 111.847 146.067 111.609 146.266 111.41C146.464 111.211 146.702 111.056 146.964 110.955C147.226 110.854 147.506 110.809 147.787 110.823H152.564C152.84 110.814 153.115 110.861 153.372 110.962C153.629 111.063 153.864 111.215 154.061 111.409C154.257 111.603 154.413 111.835 154.518 112.091C154.623 112.346 154.675 112.621 154.671 112.898V116.466L151.51 117.148V113.989H148.84V121.832H152.564C153.122 121.834 153.657 122.057 154.052 122.452C154.447 122.848 154.669 123.384 154.671 123.943ZM159.118 111.228H158.402V110.823H160.276V111.228H159.559V113.989H159.118V111.228ZM162.157 113.989V112.276L161.824 113.31H161.494L161.186 112.276V113.989H160.767V110.823H161.172L161.656 112.406L162.157 110.823H162.566V113.989H162.157ZM195.045 147.602H7.45779L2.7989 158.324L21.0366 200H181.287L199.682 158.281L195.045 147.602Z" fill="white"/>
<path d="M54.9058 163.734L47.699 175.954H47.4123L40.2053 163.734H39.4241H37.3097H33.0594H32.3534L31.332 168.48H33.0594V183.86H38.8507V172.934H39.1374L45.7853 183.86H46.5522H48.5591H49.3296L55.9739 172.934H56.2641V183.86H60.3352H62.0519V163.734H55.6872H54.9058Z" fill="black"/>
<path d="M84.2749 163.446H71.316C68.1587 163.446 66.4385 165.173 66.4385 168.335V179.258C66.4385 182.421 68.1587 184.148 71.316 184.148H84.282C87.4393 184.148 89.1595 182.421 89.1595 179.258V168.353C89.1523 165.173 87.4428 163.446 84.2749 163.446ZM83.7015 178.253C83.7121 178.408 83.6897 178.561 83.6356 178.706C83.5815 178.851 83.497 178.981 83.388 179.091C83.2788 179.2 83.1477 179.283 83.0033 179.338C82.8588 179.391 82.7046 179.413 82.551 179.401H73.0327C72.8789 179.413 72.7248 179.391 72.5804 179.338C72.436 179.283 72.3048 179.2 72.1957 179.091C72.0867 178.981 72.0022 178.851 71.9481 178.706C71.894 178.561 71.8716 178.408 71.8822 178.253V169.34C71.8716 169.186 71.894 169.031 71.9481 168.888C72.0022 168.743 72.0867 168.611 72.1957 168.503C72.3048 168.395 72.436 168.31 72.5804 168.256C72.7248 168.203 72.8789 168.18 73.0327 168.191H82.551C82.7046 168.18 82.8588 168.203 83.0033 168.256C83.1477 168.31 83.2788 168.395 83.388 168.503C83.497 168.611 83.5815 168.743 83.6356 168.888C83.6897 169.031 83.7121 169.186 83.7015 169.34V178.253Z" fill="black"/>
<path d="M112.239 173.57V173.282C112.814 173.064 113.304 172.667 113.639 172.152C113.974 171.635 114.136 171.025 114.102 170.41V168.615C114.102 165.453 112.382 163.727 109.221 163.727H92.8186L91.8008 168.472H93.5353V183.86H110.379C113.536 183.86 115.26 182.482 115.26 179.32V177.307C115.253 174.144 112.239 173.57 112.239 173.57ZM98.979 168.479H107.512C107.666 168.465 107.822 168.485 107.967 168.537C108.113 168.59 108.245 168.674 108.355 168.784C108.464 168.894 108.548 169.025 108.601 169.172C108.653 169.319 108.673 169.474 108.659 169.629V170.407C108.673 170.562 108.653 170.717 108.601 170.864C108.548 171.009 108.464 171.142 108.355 171.252C108.245 171.36 108.113 171.445 107.967 171.497C107.822 171.55 107.666 171.57 107.512 171.555H98.9862L98.979 168.479ZM109.791 178.139C109.791 178.857 109.361 179.115 108.641 179.115H98.9647V176.014H108.641C109.358 176.014 109.791 176.272 109.791 176.99V178.139Z" fill="black"/>
<path d="M118.913 163.734V183.86H124.368V163.734H118.913Z" fill="black"/>
<path d="M134.339 163.734H128.885V183.86H148.366V179.115H134.339V163.734Z" fill="black"/>
<path d="M171.738 179.115H156.617V175.954H168.866V171.212H156.617V168.48H171.447V163.734H151.167H150.457L149.436 168.48H151.167V183.86H171.738V179.115Z" fill="black"/>
</g>
<defs>
<clipPath id="clip0_3026_1908">
<rect width="203" height="200" fill="white"/>
</clipPath>
</defs>
</svg>
